<svg width="205" height="190" viewBox="0 0 205 190" fill="none" xmlns="http://www.w3.org/2000/svg">
<path d="M189.714 137.648L134.03 25.7053L126.424 18.5295L117.669 12.5018L104.753 11.0667L90.2578 14.0805L77.7719 25.7053L134.03 137.648H189.714Z" fill="#43D9B8"/>
<path d="M189.714 137.648L134.03 25.7053L126.424 18.5295L117.669 12.5018L104.753 11.0667L90.2578 14.0805L77.7719 25.7053L134.03 137.648H189.714Z" fill="url(#paint0_linear_6_16)"/>
<path d="M15.3424 50.2343L71.8074 161.785L79.4637 168.908L88.2601 174.874L101.186 176.219L115.66 173.104L128.064 161.392L71.0252 49.8453L15.3424 50.2343Z" fill="#43D9B8"/>
<path d="M15.3424 50.2343L71.8074 161.785L79.4637 168.908L88.2601 174.874L101.186 176.219L115.66 173.104L128.064 161.392L71.0252 49.8453L15.3424 50.2343Z" fill="url(#paint1_linear_6_16)"/>
<g filter="url(#filter0_d_6_16)">
<path d="M59.2583 25.5113L3 138.078H58.6842L115.086 25.7053C119.817 15.5345 124.218 16.7399 133.743 25.5113C112.216 -4.43309 83.5125 -7.21037 59.2583 25.5113Z" fill="#43D9B8"/>
</g>
<g filter="url(#filter1_d_6_16)">
<path d="M146.579 161.457L202.049 48.4992L146.366 48.8883L90.751 161.653C86.0914 171.856 81.6821 170.682 72.0958 161.977C93.8319 191.77 122.554 194.347 146.579 161.457Z" fill="#43D9B8"/>
</g>
<defs>
<filter id="filter0_d_6_16" x="0.0609913" y="0.236595" width="136.765" height="141.956" filterUnits="userSpaceOnUse" color-interpolation-filters="sRGB">
<feFlood flood-opacity="0" result="BackgroundImageFix"/>
<feColorMatrix in="SourceAlpha" type="matrix" values="0 0 0 0 0 0 0 0 0 0 0 0 0 0 0 0 0 0 127 0" result="hardAlpha"/>
<feOffset dy="1.1756"/>
<feGaussianBlur stdDeviation="1.4695"/>
<feComposite in2="hardAlpha" operator="out"/>
<feColorMatrix type="matrix" values="0 0 0 0 0 0 0 0 0 0 0 0 0 0 0 0 0 0 0.25 0"/>
<feBlend mode="normal" in2="BackgroundImageFix" result="effect1_dropShadow_6_16"/>
<feBlend mode="normal" in="SourceGraphic" in2="effect1_dropShadow_6_16" result="shape"/>
</filter>
<filter id="filter1_d_6_16" x="69.0119" y="46.7358" width="135.976" height="142.608" filterUnits="userSpaceOnUse" color-interpolation-filters="sRGB">
<feFlood flood-opacity="0" result="BackgroundImageFix"/>
<feColorMatrix in="SourceAlpha" type="matrix" values="0 0 0 0 0 0 0 0 0 0 0 0 0 0 0 0 0 0 127 0" result="hardAlpha"/>
<feOffset dy="1.1756"/>
<feGaussianBlur stdDeviation="1.4695"/>
<feComposite in2="hardAlpha" operator="out"/>
<feColorMatrix type="matrix" values="0 0 0 0 0 0 0 0 0 0 0 0 0 0 0 0 0 0 0.25 0"/>
<feBlend mode="normal" in2="BackgroundImageFix" result="effect1_dropShadow_6_16"/>
<feBlend mode="normal" in="SourceGraphic" in2="effect1_dropShadow_6_16" result="shape"/>
</filter>
<linearGradient id="paint0_linear_6_16" x1="150.104" y1="117.125" x2="77.7719" y2="-9.74315" gradientUnits="userSpaceOnUse">
<stop offset="0.0788276" stop-color="#0F052F"/>
<stop offset="0.344484" stop-color="#32294D" stop-opacity="0.7"/>
<stop offset="1" stop-color="white" stop-opacity="0"/>
</linearGradient>
<linearGradient id="paint1_linear_6_16" x1="55.0952" y1="70.4799" x2="128.312" y2="196.84" gradientUnits="userSpaceOnUse">
<stop offset="0.0788276" stop-color="#0F052F"/>
<stop offset="0.344484" stop-color="#32294D" stop-opacity="0.7"/>
<stop offset="1" stop-color="white" stop-opacity="0"/>
</linearGradient>
</defs>
</svg>
